<svg width="60" height="60" viewBox="0 0 60 60" fill="none" xmlns="http://www.w3.org/2000/svg">
<circle cx="30" cy="30" r="30" fill="#37367C" fill-opacity="0.1"/>
<g clip-path="url(#clip0_1101_32616)">
<path d="M22.1016 35.2734C21.7782 35.2734 21.5156 35.536 21.5156 35.8594C21.5156 36.1828 21.7782 36.4453 22.1016 36.4453C22.425 36.4453 22.6875 36.1828 22.6875 35.8594C22.6875 35.536 22.425 35.2734 22.1016 35.2734Z" fill="#37367C"/>
<path d="M22.1016 38.7891C21.7782 38.7891 21.5156 39.0516 21.5156 39.375C21.5156 39.6984 21.7782 39.9609 22.1016 39.9609C22.425 39.9609 22.6875 39.6984 22.6875 39.375C22.6875 39.0516 22.425 38.7891 22.1016 38.7891Z" fill="#37367C"/>
<path d="M23.8597 32.8288C24.5415 32.5868 25.0316 31.9357 25.0316 31.1716C25.0316 30.2026 24.2429 29.4138 23.2738 29.4138C22.9506 29.4138 22.6878 29.1511 22.6878 28.8279C22.6878 28.5049 22.9506 28.242 23.2738 28.242C23.4814 28.242 23.7004 28.3479 23.9073 28.5484C24.1401 28.7734 24.5109 28.7672 24.7359 28.5347C24.9609 28.3022 24.9549 27.9311 24.7224 27.7061C24.425 27.4184 24.1275 27.2557 23.8597 27.1669V26.4844C23.8597 26.1607 23.5972 25.8984 23.2738 25.8984C22.9501 25.8984 22.6878 26.1607 22.6878 26.4844V27.171C22.0058 27.4129 21.516 28.0641 21.516 28.8281C21.516 29.7972 22.3045 30.5859 23.2738 30.5859C23.5967 30.5859 23.8597 30.8487 23.8597 31.1719C23.8597 31.4948 23.5967 31.7578 23.2738 31.7578C23.0234 31.7578 22.7531 31.6003 22.513 31.3145C22.3047 31.0668 21.935 31.0348 21.6874 31.2431C21.4397 31.4513 21.4077 31.8208 21.616 32.0686C21.9291 32.4413 22.2974 32.7008 22.6878 32.8317V33.5154C22.6878 33.839 22.9501 34.1013 23.2738 34.1013C23.5972 34.1013 23.8597 33.839 23.8597 33.5154V32.8288Z" fill="#37367C"/>
<path d="M43.7018 35.0521C44.1376 34.219 44.367 33.292 44.367 32.3435C44.367 29.7897 42.7032 27.5242 40.2654 26.7542V22.6172C40.2654 22.4588 40.2002 22.3091 40.0937 22.2029L33.0627 15.1717C32.9583 15.0673 32.8075 15 32.6482 15H19.7578C18.7885 15 18 15.7885 18 16.7578V43.242C18 44.2113 18.7885 44.9998 19.7578 44.9998H38.5076C39.4769 44.9998 40.2654 44.2113 40.2654 43.242V37.9333C40.5934 37.8303 40.9113 37.6982 41.2164 37.538L44.9991 41.3207C45.686 42.0076 46.7977 42.0078 47.4848 41.3207C48.1717 40.6339 48.1719 39.5222 47.4848 38.8351L43.7018 35.0521ZM33.2341 17.0007L38.265 22.0312H33.2341V17.0007ZM39.0935 43.242C39.0935 43.5649 38.8308 43.8279 38.5076 43.8279H19.7578C19.4346 43.8279 19.1719 43.5649 19.1719 43.242V16.7578C19.1719 16.4346 19.4346 16.1719 19.7578 16.1719H32.0623V22.6172C32.0623 22.9406 32.3248 23.2031 32.6482 23.2031H39.0935V26.5139C38.8994 26.4947 38.7037 26.4844 38.5076 26.4844C35.2767 26.4844 32.6482 29.1126 32.6482 32.3435C32.6482 35.5744 35.2767 38.2029 38.5076 38.2029C38.7037 38.2029 38.8994 38.1926 39.0935 38.1731V43.242ZM38.5076 37.031C35.923 37.031 33.8201 34.9283 33.8201 32.3435C33.8201 29.759 35.923 27.656 38.5076 27.656C41.1358 27.656 43.1951 29.826 43.1951 32.3435C43.1951 34.9274 41.0919 37.031 38.5076 37.031ZM46.656 40.4922C46.4274 40.7206 46.0572 40.7215 45.8277 40.4922L42.2134 36.8779C42.5158 36.63 42.7939 36.3517 43.0417 36.0496L46.656 39.6638C46.8851 39.893 46.8851 40.2631 46.656 40.4922Z" fill="#37367C"/>
<path d="M22.1016 23.2031H29.1328C29.4562 23.2031 29.7188 22.9406 29.7188 22.6172V19.1016C29.7188 18.7779 29.4562 18.5156 29.1328 18.5156H22.1016C21.7779 18.5156 21.5156 18.7779 21.5156 19.1016V22.6172C21.5156 22.9408 21.7779 23.2031 22.1016 23.2031ZM22.6875 19.6875H28.5469V22.0312H22.6875V19.6875Z" fill="#37367C"/>
<path d="M30.3045 32.9297C30.6281 32.9297 30.8904 32.6674 30.8904 32.3438C30.8904 32.0203 30.6281 31.7578 30.3045 31.7578H26.7891C26.4654 31.7578 26.2031 32.0203 26.2031 32.3438C26.2031 32.6674 26.4654 32.9297 26.7891 32.9297H30.3045Z" fill="#37367C"/>
<path d="M26.2031 28.8281C26.2031 29.1518 26.4654 29.4141 26.7891 29.4141H30.3045C30.6281 29.4141 30.8904 29.1518 30.8904 28.8281C30.8904 28.5047 30.6281 28.2422 30.3045 28.2422H26.7891C26.4654 28.2422 26.2031 28.5047 26.2031 28.8281Z" fill="#37367C"/>
<path d="M23.8594 35.8594C23.8594 36.183 24.1217 36.4453 24.4453 36.4453H31.4763C31.8 36.4453 32.0623 36.183 32.0623 35.8594C32.0623 35.5357 31.8 35.2734 31.4763 35.2734H24.4453C24.1217 35.2734 23.8594 35.5357 23.8594 35.8594Z" fill="#37367C"/>
<path d="M34.992 38.7891H24.4453C24.1217 38.7891 23.8594 39.0514 23.8594 39.375C23.8594 39.6986 24.1217 39.9609 24.4453 39.9609H34.992C35.3156 39.9609 35.5779 39.6986 35.5779 39.375C35.5779 39.0514 35.3156 38.7891 34.992 38.7891Z" fill="#37367C"/>
</g>
<defs>
<clipPath id="clip0_1101_32616">
<rect width="30" height="30" fill="white" transform="translate(18 15)"/>
</clipPath>
</defs>
</svg>
