<svg width="84" height="84" viewBox="0 0 84 84" fill="none" xmlns="http://www.w3.org/2000/svg">
<circle cx="42" cy="42" r="42" fill="#F3F7F8"/>
<path d="M62.9715 59.0191H59.1697V37.8114L61.3088 39.2077C62.0957 39.7214 63.1125 39.7213 63.8993 39.2078C64.5526 38.7813 64.9425 38.0672 64.9425 37.2972C64.9425 36.5273 64.5525 35.8132 63.8993 35.3868L58.8113 32.0657C58.5037 31.8651 58.0885 31.9469 57.884 32.2486C57.6794 32.5504 57.7629 32.9578 58.0704 33.1585L63.1584 36.4796C63.4421 36.6647 63.6048 36.9627 63.6048 37.2971C63.6048 37.6316 63.442 37.9295 63.1583 38.1147C62.8216 38.3345 62.3865 38.3345 62.0497 38.1147L42.1577 25.1307C41.7581 24.8701 41.2418 24.87 40.8422 25.1309L20.9502 38.1148C20.6135 38.3346 20.1784 38.3347 19.8417 38.1147C19.558 37.9296 19.3953 37.6317 19.3953 37.2972C19.3953 36.9628 19.5581 36.6648 19.8417 36.4796L41.5 22.3429L54.6096 30.8997C54.9173 31.1008 55.3324 31.0186 55.5369 30.7169C55.7416 30.4151 55.658 30.0077 55.3505 29.807L42.1577 21.1955C41.7581 20.9348 41.2418 20.9348 40.8422 21.1957L34.3434 25.4375V24.8692H34.5366C35.0158 24.8692 35.4057 24.4865 35.4057 24.0163V22.0252C35.4057 21.555 35.0157 21.1724 34.5366 21.1724H27.4605C26.9812 21.1724 26.5914 21.555 26.5914 22.0252V24.0164C26.5914 24.4866 26.9812 24.8692 27.4605 24.8692H27.6536V29.8041L19.1007 35.3868C18.4474 35.8132 18.0575 36.5274 18.0575 37.2973C18.0575 38.0672 18.4475 38.7813 19.1007 39.2078C19.4942 39.4646 19.945 39.593 20.396 39.593C20.8468 39.593 21.2978 39.4646 21.6912 39.2078L23.8303 37.8115V49.5018C23.8303 49.8643 24.1297 50.1582 24.4992 50.1582C24.8686 50.1582 25.1681 49.8643 25.1681 49.5018V36.9384L41.5 26.278L57.8319 36.9382V59.019H25.1681V53.609C25.1681 53.2465 24.8686 52.9527 24.4991 52.9527C24.1297 52.9527 23.8302 53.2465 23.8302 53.609V59.019H20.0285C18.91 59.0191 18 59.912 18 61.0096C18 62.1071 18.91 63 20.0285 63H62.9715C64.09 63 65 62.1071 65 61.0096C65 59.912 64.09 59.0191 62.9715 59.0191ZM33.0057 26.3108L28.9914 28.9309V24.8692H33.0057V26.3108ZM27.9292 22.485H34.068V23.5566H27.9292V22.485V22.485ZM62.9715 61.6874H20.0285C19.6477 61.6874 19.3378 61.3833 19.3378 61.0096C19.3378 60.6358 19.6477 60.3317 20.0285 60.3317H62.9715C63.3523 60.3317 63.6622 60.6358 63.6622 61.0096C63.6622 61.3833 63.3523 61.6874 62.9715 61.6874Z" fill="#68808C"/>
<circle cx="24.5" cy="51.5376" r="0.5" fill="#68808C"/>
<circle cx="56.7822" cy="31.5942" r="0.5" fill="#68808C"/>
</svg>
